<svg xmlns="http://www.w3.org/2000/svg" version="1.1" xmlns:xlink="http://www.w3.org/1999/xlink" width="1000" height="1000"><style>
    #light-icon {
      display: inline;
    }
    #dark-icon {
      display: none;
    }

    @media (prefers-color-scheme: dark) {
      #light-icon {
        display: none;
      }
      #dark-icon {
        display: inline;
      }
    }
  </style><g id="light-icon"><svg xmlns="http://www.w3.org/2000/svg" version="1.1" xmlns:xlink="http://www.w3.org/1999/xlink" width="1000" height="1000"><g><g transform="matrix(1.25,0,0,1.25,0,0)"><svg xmlns="http://www.w3.org/2000/svg" version="1.1" xmlns:xlink="http://www.w3.org/1999/xlink" width="800px" height="800px"><svg width="800px" height="800px" viewBox="0 0 24 24" xmlns="http://www.w3.org/2000/svg">
  <path d="M17,8C8,10,5.9,16.17,3.82,21.34L5.71,22l1-2.3A4.49,4.49,0,0,0,8,20C19,20,22,3,22,3,21,5,14,5.25,9,6.25S2,11.5,2,13.5a6.22,6.22,0,0,0,1.75,3.75C7,8,17,8,17,8Z" fill="#333"></path>
  <rect width="24" height="24" fill="none"></rect>
</svg></svg></g></g></svg></g><g id="dark-icon"><svg xmlns="http://www.w3.org/2000/svg" version="1.1" xmlns:xlink="http://www.w3.org/1999/xlink" width="1000" height="1000"><g><g transform="matrix(1.25,0,0,1.25,0,0)"><svg xmlns="http://www.w3.org/2000/svg" version="1.1" xmlns:xlink="http://www.w3.org/1999/xlink" width="800px" height="800px"><svg width="800px" height="800px" viewBox="0 0 24 24" xmlns="http://www.w3.org/2000/svg">
  <path d="M17,8C8,10,5.9,16.17,3.82,21.34L5.71,22l1-2.3A4.49,4.49,0,0,0,8,20C19,20,22,3,22,3,21,5,14,5.25,9,6.25S2,11.5,2,13.5a6.22,6.22,0,0,0,1.75,3.75C7,8,17,8,17,8Z" fill="#f5f5f5"></path>
  <rect width="24" height="24" fill="none"></rect>
</svg></svg></g></g></svg></g></svg>